<svg width="35" height="35" viewBox="0 0 35 35" fill="none" xmlns="http://www.w3.org/2000/svg">
<path fill-rule="evenodd" clip-rule="evenodd" d="M17.8806 34.1268C27.3045 34.1268 34.944 26.4873 34.944 17.0634C34.944 7.63956 27.3045 0 17.8806 0C8.45669 0 0.817139 7.63956 0.817139 17.0634C0.817139 26.4873 8.45669 34.1268 17.8806 34.1268ZM23.2038 7.94886C23.4629 7.02847 22.5697 6.48422 21.754 7.06537L10.3668 15.1776C9.48214 15.8078 9.62129 17.0634 10.5758 17.0634H13.5744V17.0402H19.4184L14.6566 18.7204L12.5574 26.178C12.2983 27.0984 13.1914 27.6427 14.0072 27.0615L25.3944 18.9493C26.279 18.3191 26.1398 17.0634 25.1854 17.0634H20.6381L23.2038 7.94886Z" fill="white"/>
</svg>
